<?xml version="1.0" encoding="UTF-8"?>
<svg width="68px" height="22px" viewBox="0 0 68 22" version="1.1" xmlns="http://www.w3.org/2000/svg" xmlns:xlink="http://www.w3.org/1999/xlink">
    <title>_2457959479312</title>
    <g id="Page-1" stroke="none" stroke-width="1" fill="none" fill-rule="evenodd">
        <g id="Nova-Logo-Envio-Simples-3" transform="translate(-13.618600, -23.948000)">
            <g id="_2457959479312" transform="translate(14.026800, 24.224800)">
                <path d="M12.0293,1.8158 L19.2811,5.9086 L19.2879,15.238 L11.8687,19.7345 L4.3742,15.1972 L4.3786,12.2015 L1.7473,12.1983 L0,11.1394 L5.335,11.1435 L5.3428,13.4229 L10.395,10.3722 L5.3422,7.4559 L5.3461,9.4671 L4.7928,9.4661 L4.7928,9.4671 L1.1613,9.4679 L2.9543,8.4092 L4.3778,8.4088 L4.3778,6.3969 L5.0025,6.0184 L6.8044,7.0586 L12.3211,7.0625 L12.3201,9.2029 L17.58,6.166 L12.3172,3.2719 L12.3211,5.3858 L6.0397,5.3902 L7.8869,4.2959 C9.0929,4.3076 10.1616,4.3307 11.3654,4.3357 L11.3719,2.2097 L12.0293,1.8158 L12.0293,1.8158 Z M5.5729,14.516 L11.3485,18.0151 L11.3522,11.0149 L5.5729,14.516 L5.5729,14.516 Z M8.6405,8.1176 L11.3428,9.6761 L11.354,8.1205 L8.6405,8.1176 L8.6405,8.1176 Z M18.3271,6.7897 L12.319,10.429 L12.3154,18.0309 L18.3222,14.3767 L18.3271,6.7897 L18.3271,6.7897 Z" id="Shape" fill="#FFC800"></path>
                <path d="M24.0908,6.2989 C24.1512,6.4708 24.2372,6.6265 24.3464,6.7682 C24.4555,6.9098 24.5809,7.0306 24.725,7.1305 C24.8689,7.2304 25.0269,7.307 25.1988,7.3604 C25.3706,7.4138 25.5518,7.4417 25.7422,7.4417 C26.2207,7.4417 26.597,7.3163 26.8711,7.0654 C26.9639,7.0004 27.0546,6.9517 27.1428,6.9214 C27.2311,6.8912 27.3147,6.8772 27.3936,6.8772 C27.5237,6.8772 27.6399,6.9098 27.742,6.9771 C27.8443,7.0445 27.9279,7.1328 27.9929,7.2396 C28.0394,7.3139 28.0741,7.3929 28.095,7.4789 C28.116,7.5648 28.1206,7.6531 28.109,7.7413 C28.0974,7.8295 28.0696,7.9155 28.0254,8.0014 C27.9813,8.0873 27.9139,8.1663 27.8256,8.2361 C27.7235,8.3289 27.6074,8.4172 27.4773,8.5032 C27.3472,8.5891 27.1986,8.6657 27.029,8.7308 C26.8594,8.7958 26.669,8.8469 26.4576,8.8863 C26.2463,8.9259 26.007,8.9468 25.7422,8.9468 C25.2824,8.9468 24.8503,8.8585 24.4463,8.6843 C24.0421,8.5101 23.6891,8.2732 23.3871,7.9712 C23.0852,7.6693 22.8459,7.3163 22.6694,6.9144 C22.4928,6.5126 22.4046,6.0829 22.4046,5.6231 C22.4046,5.1631 22.4928,4.7311 22.6694,4.327 C22.8459,3.9229 23.0852,3.5698 23.3871,3.2701 C23.6891,2.9705 24.0421,2.7336 24.4463,2.5594 C24.8503,2.3852 25.2824,2.2993 25.7422,2.2993 C26.1975,2.2993 26.6271,2.3852 27.029,2.5572 C27.4308,2.7291 27.7838,2.9613 28.0881,3.2563 C28.3924,3.5513 28.634,3.8996 28.8128,4.2991 C28.9916,4.6986 29.0822,5.126 29.0869,5.5812 C29.0869,5.795 29.0195,5.9668 28.8825,6.0991 C28.7454,6.2316 28.5643,6.2989 28.3413,6.2989 L24.0908,6.2989 L24.0908,6.2989 Z M27.5331,5.0447 C27.4819,4.8543 27.403,4.6846 27.2938,4.5314 C27.1846,4.3805 27.0522,4.2504 26.8989,4.1436 C26.7457,4.0366 26.5737,3.9577 26.3833,3.902 C26.1929,3.8462 25.9907,3.8184 25.7771,3.8184 C25.5634,3.8184 25.3637,3.8462 25.1755,3.9043 C24.9873,3.9623 24.8178,4.046 24.6668,4.1552 C24.5159,4.262 24.3858,4.3921 24.279,4.543 C24.1721,4.6917 24.0931,4.8589 24.0421,5.0447 L27.5331,5.0447 L27.5331,5.0447 Z M36.5809,8.1315 C36.5809,8.2383 36.56,8.3359 36.5206,8.4265 C36.481,8.517 36.43,8.596 36.3649,8.6634 C36.2976,8.7308 36.2209,8.7842 36.1304,8.8213 C36.0374,8.8585 35.9422,8.8771 35.8401,8.8771 C35.7355,8.8771 35.6379,8.8585 35.5404,8.8213 C35.4451,8.7842 35.3639,8.733 35.2918,8.6657 C35.2222,8.5984 35.1664,8.5194 35.1247,8.4288 C35.0829,8.3382 35.062,8.2383 35.062,8.1315 L35.062,5.5441 C35.062,5.5069 35.0665,5.479 35.0758,5.4605 C35.0665,5.2329 35.0202,5.0192 34.9365,4.8194 C34.8529,4.622 34.7391,4.4477 34.5951,4.2991 C34.451,4.1505 34.2839,4.032 34.0911,3.9461 C33.8983,3.8602 33.6846,3.8184 33.4524,3.8184 C33.2154,3.8184 32.9971,3.8602 32.7974,3.9461 C32.5976,4.032 32.4281,4.1528 32.2864,4.3061 C32.1447,4.4594 32.0332,4.6383 31.9519,4.845 C31.8706,5.0516 31.8288,5.2723 31.8288,5.5092 L31.8288,8.1315 C31.8288,8.2383 31.8102,8.3382 31.773,8.4288 C31.7359,8.5194 31.6825,8.5984 31.6151,8.6657 C31.5477,8.733 31.4688,8.7842 31.3806,8.8213 C31.2923,8.8585 31.1947,8.8771 31.0879,8.8771 C30.9834,8.8771 30.8858,8.8585 30.7929,8.8213 C30.7,8.7842 30.6164,8.7308 30.5444,8.6634 C30.4724,8.596 30.4143,8.517 30.3725,8.4265 C30.3307,8.3359 30.3098,8.2383 30.3098,8.1315 L30.3098,5.5046 C30.3098,5.0587 30.391,4.6406 30.5514,4.2526 C30.7116,3.8649 30.9322,3.5257 31.2133,3.2354 C31.4943,2.9451 31.8264,2.7174 32.2097,2.5502 C32.5953,2.383 33.0064,2.2993 33.45,2.2993 C33.896,2.2993 34.3095,2.383 34.6903,2.5502 C35.0712,2.7174 35.401,2.9451 35.6821,3.2354 C35.9609,3.5257 36.1791,3.8649 36.3395,4.2526 C36.4997,4.6406 36.5809,5.0587 36.5809,5.5046 L36.5809,8.1315 L36.5809,8.1315 Z M40.6119,6.4452 L42.2493,2.8428 C42.3145,2.6988 42.4097,2.585 42.5327,2.5038 C42.6559,2.4224 42.7883,2.383 42.9322,2.383 C43.0437,2.383 43.1482,2.4062 43.2458,2.4526 C43.3433,2.4944 43.4269,2.5525 43.4943,2.6268 C43.5617,2.7011 43.6128,2.7825 43.6476,2.873 C43.6825,2.9636 43.6987,3.0612 43.6987,3.1633 C43.6987,3.2656 43.6755,3.3655 43.6291,3.463 L41.3087,8.4033 C41.2343,8.5566 41.1345,8.6681 41.0068,8.7401 C40.879,8.812 40.7583,8.8538 40.6468,8.8631 C40.4702,8.8631 40.3216,8.8191 40.1984,8.733 C40.0754,8.6471 39.9802,8.538 39.9151,8.4033 L37.5878,3.456 C37.5414,3.3584 37.5182,3.2586 37.5182,3.1564 C37.5182,3.0541 37.5367,2.9567 37.5716,2.8661 C37.6064,2.7754 37.6575,2.6942 37.7249,2.6199 C37.7922,2.5456 37.8712,2.4875 37.964,2.4457 C38.0152,2.4224 38.0663,2.4039 38.1174,2.3923 C38.1684,2.3806 38.2196,2.3759 38.2707,2.3759 C38.4193,2.3759 38.5564,2.4155 38.6794,2.4967 C38.8026,2.5781 38.8955,2.6918 38.9605,2.8359 L40.6119,6.4452 Z M44.7962,0.8361 C44.7962,0.72 44.8195,0.6108 44.8636,0.5085 C44.9078,0.4064 44.9659,0.3181 45.0402,0.2438 C45.1167,0.1695 45.205,0.109 45.3073,0.0649 C45.4094,0.0209 45.5162,0 45.6301,0 C45.7416,0 45.8485,0.0209 45.9506,0.0649 C46.0528,0.109 46.1434,0.1695 46.22,0.2438 C46.2967,0.3181 46.3571,0.4064 46.4013,0.5085 C46.4453,0.6108 46.4685,0.72 46.4685,0.8361 C46.4685,0.9476 46.4453,1.0521 46.4013,1.152 C46.3571,1.2519 46.2967,1.34 46.22,1.4144 C46.1434,1.4888 46.0528,1.5468 45.9506,1.5909 C45.8485,1.6351 45.7416,1.6583 45.6301,1.6583 C45.5162,1.6583 45.4094,1.6351 45.3073,1.5909 C45.205,1.5468 45.1167,1.4888 45.0402,1.4144 C44.9659,1.34 44.9078,1.2519 44.8636,1.152 C44.8195,1.0521 44.7962,0.9476 44.7962,0.8361 Z M46.385,8.1106 C46.385,8.2128 46.3641,8.3104 46.3246,8.4033 C46.2851,8.4961 46.2316,8.5751 46.1644,8.6425 C46.097,8.7099 46.018,8.7633 45.9275,8.8028 C45.8345,8.8422 45.7369,8.8631 45.6301,8.8631 C45.5256,8.8631 45.4281,8.8422 45.3351,8.8028 C45.2422,8.7633 45.1609,8.7099 45.0889,8.6425 C45.0193,8.5751 44.9659,8.4961 44.9263,8.4033 C44.8869,8.3104 44.866,8.2128 44.866,8.1106 L44.866,3.1355 C44.866,3.0332 44.8869,2.9358 44.9287,2.8452 C44.9705,2.7545 45.0262,2.6756 45.0958,2.6059 C45.1679,2.5363 45.2492,2.4805 45.3421,2.441 C45.435,2.4015 45.5349,2.383 45.6441,2.383 C45.7509,2.383 45.8485,2.4015 45.9367,2.441 C46.0249,2.4805 46.1039,2.5363 46.1713,2.6059 C46.2387,2.6756 46.2921,2.7545 46.3292,2.8452 C46.3664,2.9358 46.385,3.0332 46.385,3.1355 L46.385,8.1106 L46.385,8.1106 Z M49.3708,5.6231 C49.3708,5.8693 49.4173,6.1015 49.5125,6.3198 C49.6077,6.5405 49.7378,6.7333 49.9027,6.8959 C50.0677,7.0607 50.2581,7.1908 50.4764,7.2861 C50.6948,7.3813 50.9294,7.4277 51.1802,7.4277 C51.4286,7.4277 51.6657,7.3813 51.8839,7.2861 C52.1046,7.1908 52.2974,7.0607 52.4576,6.8959 C52.6202,6.7333 52.7479,6.5405 52.8409,6.3198 C52.9338,6.1015 52.9803,5.8693 52.9803,5.6231 C52.9803,5.3722 52.9338,5.1377 52.8409,4.9193 C52.7479,4.6986 52.6202,4.5082 52.4576,4.3456 C52.2974,4.183 52.1046,4.0553 51.8839,3.9601 C51.6657,3.8649 51.4286,3.8184 51.1802,3.8184 C50.9339,3.8184 50.6994,3.8649 50.481,3.9601 C50.2604,4.0553 50.0677,4.183 49.9027,4.3456 C49.7378,4.5082 49.6077,4.6986 49.5125,4.9193 C49.4173,5.1377 49.3708,5.3722 49.3708,5.6231 Z M47.8518,5.6231 C47.8518,5.1631 47.9401,4.7311 48.1166,4.3293 C48.2931,3.9275 48.5324,3.5768 48.8343,3.2748 C49.1386,2.9729 49.4893,2.7336 49.8911,2.5594 C50.2953,2.3852 50.7226,2.2993 51.1802,2.2993 C51.6401,2.2993 52.0721,2.3852 52.4763,2.5594 C52.8804,2.7336 53.2334,2.9729 53.5331,3.2748 C53.8327,3.5768 54.0696,3.9275 54.2414,4.3293 C54.4133,4.7311 54.4992,5.1631 54.4992,5.6231 C54.4992,6.0782 54.4133,6.508 54.2414,6.9121 C54.0696,7.3163 53.8327,7.6693 53.5331,7.9712 C53.2334,8.2732 52.8804,8.5101 52.4763,8.6843 C52.0721,8.8585 51.6401,8.9468 51.1802,8.9468 C50.7226,8.9468 50.2953,8.8585 49.8911,8.6843 C49.4893,8.5101 49.1386,8.2732 48.8343,7.9712 C48.5324,7.6693 48.2931,7.3163 48.1166,6.9121 C47.9401,6.508 47.8518,6.0782 47.8518,5.6231 Z M24.3417,16.4661 C24.142,16.3825 23.9352,16.2896 23.7216,16.1874 C23.5078,16.0853 23.3127,15.9621 23.1362,15.8158 C22.9597,15.6695 22.8156,15.4952 22.7019,15.2932 C22.5881,15.0912 22.53,14.8496 22.53,14.5662 C22.53,14.2736 22.5881,14.0088 22.7042,13.7695 C22.8227,13.5303 22.9829,13.3259 23.192,13.1564 C23.3986,12.9868 23.6449,12.8568 23.9282,12.7661 C24.2139,12.6756 24.5252,12.6315 24.8643,12.6315 C25.0594,12.6315 25.2615,12.6477 25.4705,12.6779 C25.6795,12.708 25.8793,12.7569 26.0674,12.8243 C26.2556,12.8915 26.4227,12.9798 26.5715,13.089 C26.7201,13.2005 26.8339,13.3306 26.9129,13.4861 C26.9826,13.6349 27.0081,13.7835 26.9872,13.9298 C26.9663,14.0762 26.9129,14.197 26.8293,14.2898 C26.7642,14.3641 26.6899,14.4222 26.604,14.464 C26.518,14.5058 26.4251,14.5267 26.3275,14.5267 C26.2532,14.5267 26.172,14.5082 26.0837,14.471 C25.9861,14.4106 25.8979,14.3572 25.8166,14.3107 C25.7353,14.2642 25.6517,14.2248 25.5657,14.1923 C25.4798,14.1597 25.3892,14.1342 25.294,14.118 C25.1988,14.1016 25.0896,14.0947 24.9688,14.0947 C24.6668,14.0947 24.4392,14.1342 24.2837,14.2155 C24.128,14.2968 24.049,14.4222 24.049,14.5894 C24.049,14.6777 24.0793,14.7497 24.1373,14.8078 C24.1954,14.8659 24.2743,14.9193 24.3742,14.9634 C24.4741,15.0098 24.5949,15.054 24.7366,15.0957 C24.8783,15.1375 25.0315,15.184 25.1988,15.2351 C25.4728,15.3188 25.7353,15.4163 25.9838,15.5278 C26.2323,15.6393 26.4507,15.7763 26.6387,15.9343 C26.8269,16.0945 26.9756,16.2826 27.0871,16.4986 C27.1986,16.7146 27.2543,16.9724 27.2543,17.2745 C27.2543,17.5532 27.1939,17.8133 27.0754,18.0572 C26.957,18.301 26.7921,18.5124 26.5831,18.6936 C26.3717,18.8747 26.1231,19.0187 25.8352,19.1232 C25.5448,19.2278 25.2289,19.2789 24.8852,19.2789 C24.6715,19.2789 24.4463,19.258 24.207,19.2184 C23.9678,19.179 23.7354,19.1116 23.5102,19.0164 C23.2849,18.9212 23.0758,18.7958 22.8854,18.6448 C22.695,18.4939 22.5416,18.3057 22.4255,18.0827 C22.3418,17.9271 22.3,17.7854 22.3,17.6531 C22.3,17.5207 22.3302,17.4022 22.3883,17.3023 C22.4464,17.2024 22.5277,17.1257 22.6323,17.0701 C22.7367,17.0143 22.8505,16.9864 22.976,16.9864 C23.0874,16.9864 23.2036,17.0096 23.3243,17.0585 C23.4451,17.1072 23.5659,17.1862 23.6867,17.293 C23.7425,17.3627 23.8121,17.4277 23.8958,17.4905 C23.9794,17.5532 24.0722,17.6089 24.1745,17.6577 C24.2766,17.7065 24.3881,17.7459 24.5066,17.7738 C24.6251,17.8017 24.7482,17.8156 24.8783,17.8156 C24.9944,17.8156 25.1036,17.8017 25.2057,17.7761 C25.3079,17.7505 25.3985,17.7158 25.4775,17.6693 C25.5565,17.6228 25.6192,17.567 25.6655,17.502 C25.712,17.4371 25.7353,17.3627 25.7353,17.2791 C25.7353,17.1815 25.6842,17.0932 25.582,17.012 C25.4798,16.9306 25.3567,16.8563 25.2104,16.7867 C25.064,16.717 24.9107,16.6543 24.7504,16.6009 C24.5902,16.5474 24.4532,16.5033 24.3417,16.4661 L24.3417,16.4661 Z M28.7908,11.1682 C28.7908,11.0521 28.8141,10.9429 28.8581,10.8406 C28.9023,10.7385 28.9604,10.6502 29.0347,10.5759 C29.1113,10.5016 29.1996,10.4411 29.3018,10.3971 C29.404,10.353 29.5108,10.3321 29.6246,10.3321 C29.7361,10.3321 29.843,10.353 29.9452,10.3971 C30.0473,10.4411 30.138,10.5016 30.2146,10.5759 C30.2913,10.6502 30.3516,10.7385 30.3958,10.8406 C30.4399,10.9429 30.4631,11.0521 30.4631,11.1682 C30.4631,11.2797 30.4399,11.3842 30.3958,11.4841 C30.3516,11.584 30.2913,11.6721 30.2146,11.7466 C30.138,11.8209 30.0473,11.8789 29.9452,11.923 C29.843,11.9672 29.7361,11.9904 29.6246,11.9904 C29.5108,11.9904 29.404,11.9672 29.3018,11.923 C29.1996,11.8789 29.1113,11.8209 29.0347,11.7466 C28.9604,11.6721 28.9023,11.584 28.8581,11.4841 C28.8141,11.3842 28.7908,11.2797 28.7908,11.1682 Z M30.3796,18.4427 C30.3796,18.5449 30.3587,18.6425 30.3191,18.7354 C30.2797,18.8283 30.2262,18.9072 30.1589,18.9746 C30.0915,19.042 30.0126,19.0954 29.922,19.1349 C29.8291,19.1744 29.7315,19.1953 29.6246,19.1953 C29.5201,19.1953 29.4226,19.1744 29.3297,19.1349 C29.2367,19.0954 29.1555,19.042 29.0835,18.9746 C29.0138,18.9072 28.9604,18.8283 28.9209,18.7354 C28.8814,18.6425 28.8605,18.5449 28.8605,18.4427 L28.8605,13.4676 C28.8605,13.3654 28.8814,13.2679 28.9232,13.1773 C28.9651,13.0866 29.0207,13.0077 29.0904,12.938 C29.1624,12.8684 29.2438,12.8126 29.3366,12.7732 C29.4296,12.7336 29.5294,12.7151 29.6386,12.7151 C29.7454,12.7151 29.843,12.7336 29.9312,12.7732 C30.0195,12.8126 30.0985,12.8684 30.1658,12.938 C30.2332,13.0077 30.2866,13.0866 30.3238,13.1773 C30.3609,13.2679 30.3796,13.3654 30.3796,13.4676 L30.3796,18.4427 Z M33.6441,18.4567 C33.6441,18.6657 33.572,18.8422 33.4305,18.9839 C33.2888,19.1256 33.1122,19.1953 32.9031,19.1953 C32.7986,19.1953 32.7011,19.1744 32.6082,19.1349 C32.5153,19.0954 32.4317,19.0443 32.3597,18.9793 C32.2876,18.9143 32.2296,18.8353 32.1878,18.7446 C32.1459,18.6541 32.125,18.5589 32.125,18.4567 L32.125,15.1747 C32.125,14.8263 32.1948,14.4966 32.3318,14.1877 C32.4689,13.8787 32.6546,13.6093 32.8938,13.3793 C33.1308,13.1494 33.4049,12.9682 33.7208,12.8335 C34.0343,12.6988 34.3665,12.6315 34.7149,12.6315 C35.0772,12.6315 35.4186,12.7011 35.7368,12.8405 C36.0551,12.9798 36.336,13.1703 36.5776,13.4118 C36.8192,13.1703 37.1025,12.9798 37.4253,12.8405 C37.7483,12.7011 38.092,12.6315 38.4543,12.6315 C38.8074,12.6315 39.1395,12.6965 39.446,12.8266 C39.7527,12.9567 40.0221,13.1355 40.2543,13.3631 C40.489,13.5907 40.6748,13.8555 40.8142,14.1574 C40.9535,14.4593 41.0302,14.7822 41.044,15.126 C41.044,15.1353 41.044,15.1446 41.044,15.1562 C41.044,15.1678 41.044,15.1794 41.044,15.1887 L41.044,18.4567 C41.044,18.5589 41.0231,18.6541 40.9837,18.7446 C40.9442,18.8353 40.8908,18.9143 40.8234,18.9793 C40.7561,19.0443 40.6771,19.0954 40.5889,19.1349 C40.5006,19.1744 40.4054,19.1953 40.3031,19.1953 C40.1987,19.1953 40.1011,19.1766 40.0035,19.1372 C39.9082,19.0977 39.827,19.0443 39.755,18.9793 C39.6853,18.9143 39.6295,18.8376 39.5877,18.747 C39.5459,18.6565 39.525,18.5589 39.525,18.4567 L39.525,15.1724 C39.5205,15.0238 39.4878,14.889 39.4275,14.7636 C39.3671,14.6382 39.2881,14.5291 39.1882,14.4384 C39.0883,14.3479 38.9746,14.2782 38.8468,14.2271 C38.7215,14.1761 38.582,14.1505 38.4357,14.1505 C38.2871,14.1505 38.1454,14.1783 38.0106,14.2341 C37.876,14.2898 37.7599,14.3641 37.66,14.4593 C37.5601,14.5547 37.4811,14.6661 37.4231,14.7938 C37.365,14.9215 37.3371,15.0586 37.3371,15.2073 L37.3371,18.4567 C37.3371,18.6657 37.2651,18.8422 37.1235,18.9839 C36.9818,19.1256 36.8052,19.1953 36.5962,19.1953 C36.4917,19.1953 36.3941,19.1766 36.3012,19.1372 C36.2083,19.0977 36.1247,19.0443 36.0527,18.9793 C35.9806,18.9143 35.9226,18.8376 35.8808,18.747 C35.8391,18.6565 35.8181,18.5589 35.8181,18.4567 L35.8181,15.1794 C35.8135,15.0307 35.7833,14.8937 35.7252,14.766 C35.6671,14.6382 35.5882,14.5291 35.4906,14.4384 C35.3954,14.3479 35.2816,14.2782 35.1515,14.2271 C35.0214,14.1761 34.8821,14.1505 34.7358,14.1505 C34.587,14.1505 34.4455,14.1761 34.3154,14.2295 C34.183,14.2829 34.0669,14.3572 33.967,14.4524 C33.8671,14.5476 33.7881,14.6591 33.73,14.7845 C33.6719,14.91 33.6441,15.0423 33.6441,15.1864 L33.6441,18.4567 L33.6441,18.4567 Z M42.5806,15.9552 C42.5806,15.4952 42.6688,15.0632 42.8453,14.6615 C43.0219,14.2596 43.261,13.9089 43.5631,13.6069 C43.8673,13.305 44.218,13.0657 44.6199,12.8915 C45.024,12.7174 45.4514,12.6315 45.9089,12.6315 C46.3688,12.6315 46.8008,12.7174 47.2049,12.8915 C47.6091,13.0657 47.9621,13.305 48.2617,13.6069 C48.5614,13.9089 48.7983,14.2596 48.9702,14.6615 C49.1421,15.0632 49.228,15.4952 49.228,15.9552 C49.228,16.4104 49.1421,16.8401 48.9702,17.2442 C48.7983,17.6484 48.5637,18.0014 48.2641,18.3033 C47.9645,18.6053 47.6115,18.8422 47.2073,19.0164 C46.8031,19.1906 46.3712,19.2789 45.9112,19.2789 C45.5768,19.2789 45.2586,19.2301 44.9543,19.1349 C44.65,19.0396 44.3643,18.905 44.0996,18.733 L44.0996,20.763 C44.0996,20.8745 44.081,20.9768 44.0462,21.072 C44.0113,21.1672 43.9626,21.2508 43.8975,21.3205 C43.8325,21.3901 43.7535,21.4459 43.6629,21.4877 C43.57,21.5295 43.4701,21.5504 43.3587,21.5504 C43.2495,21.5504 43.1496,21.5295 43.0566,21.4877 C42.9638,21.4459 42.8825,21.3901 42.8105,21.3205 C42.7408,21.2508 42.6851,21.1672 42.6433,21.072 C42.6015,20.9768 42.5806,20.8745 42.5806,20.763 L42.5806,15.9552 L42.5806,15.9552 Z M44.0996,15.9552 C44.0996,16.2014 44.1461,16.4336 44.2413,16.6519 C44.3365,16.8726 44.4666,17.0654 44.6315,17.228 C44.7963,17.3929 44.9869,17.523 45.2051,17.6182 C45.4235,17.7134 45.6581,17.7599 45.9089,17.7599 C46.1574,17.7599 46.3943,17.7134 46.6127,17.6182 C46.8334,17.523 47.0261,17.3929 47.1864,17.228 C47.349,17.0654 47.4767,16.8726 47.5697,16.6519 C47.6625,16.4336 47.709,16.2014 47.709,15.9552 C47.709,15.7043 47.6625,15.4698 47.5697,15.2514 C47.4767,15.0307 47.349,14.8403 47.1864,14.6777 C47.0261,14.5151 46.8334,14.3874 46.6127,14.2922 C46.3943,14.197 46.1574,14.1505 45.9089,14.1505 C45.6627,14.1505 45.4281,14.197 45.2098,14.2922 C44.9891,14.3874 44.7963,14.5151 44.6315,14.6777 C44.4666,14.8403 44.3365,15.0307 44.2413,15.2514 C44.1461,15.4698 44.0996,15.7043 44.0996,15.9552 Z M52.892,17.6762 C52.9988,17.6762 53.0987,17.6971 53.1916,17.739 C53.2846,17.7808 53.3635,17.8388 53.4263,17.9109 C53.4913,17.9828 53.5424,18.0664 53.5795,18.1594 C53.6167,18.2523 53.6353,18.3498 53.6353,18.4521 C53.6353,18.6681 53.5656,18.8445 53.4263,18.9862 C53.2868,19.1256 53.108,19.1953 52.8897,19.1953 C52.5739,19.1953 52.2789,19.1419 52.0024,19.0351 C51.726,18.9281 51.4822,18.7795 51.2731,18.5891 C51.0641,18.3986 50.8992,18.1687 50.7784,17.8993 C50.6576,17.6275 50.5926,17.3301 50.5833,17.0051 L50.5833,10.9661 C50.5833,10.8593 50.6042,10.7594 50.6437,10.6665 C50.6832,10.5736 50.7343,10.4947 50.7993,10.4273 C50.8667,10.3599 50.9434,10.3041 51.0315,10.2647 C51.1198,10.2251 51.215,10.2066 51.3173,10.2066 C51.4264,10.2066 51.5262,10.2251 51.6192,10.2647 C51.7121,10.3041 51.7958,10.3575 51.8677,10.4249 C51.9397,10.4923 51.9978,10.5736 52.0396,10.6665 C52.0814,10.7594 52.1023,10.8593 52.1023,10.9661 L52.1023,16.9515 C52.1023,17.1931 52.1766,17.3743 52.3252,17.4951 C52.4716,17.6159 52.662,17.6762 52.892,17.6762 L52.892,17.6762 Z M56.2239,16.631 C56.2842,16.8029 56.3702,16.9586 56.4794,17.1003 C56.5885,17.242 56.714,17.3627 56.858,17.4626 C57.002,17.5625 57.1599,17.6391 57.3318,17.6925 C57.5036,17.7459 57.6849,17.7738 57.8753,17.7738 C58.3538,17.7738 58.7301,17.6484 59.0041,17.3975 C59.097,17.3325 59.1876,17.2838 59.2758,17.2536 C59.3641,17.2233 59.4477,17.2094 59.5267,17.2094 C59.6568,17.2094 59.7729,17.242 59.8751,17.3092 C59.9773,17.3766 60.061,17.4649 60.126,17.5717 C60.1724,17.646 60.2072,17.725 60.2281,17.811 C60.249,17.8969 60.2537,17.9852 60.2421,18.0735 C60.2305,18.1616 60.2026,18.2476 60.1584,18.3335 C60.1144,18.4194 60.047,18.4984 59.9587,18.5682 C59.8566,18.661 59.7404,18.7493 59.6103,18.8353 C59.4802,18.9212 59.3316,18.9978 59.1621,19.0629 C58.9924,19.1279 58.802,19.179 58.5907,19.2184 C58.3793,19.258 58.14,19.2789 57.8753,19.2789 C57.4155,19.2789 56.9834,19.1906 56.5793,19.0164 C56.1752,18.8422 55.8221,18.6053 55.5201,18.3033 C55.2182,18.0014 54.9789,17.6484 54.8025,17.2465 C54.6259,16.8447 54.5376,16.415 54.5376,15.9552 C54.5376,15.4952 54.6259,15.0632 54.8025,14.6591 C54.9789,14.255 55.2182,13.9019 55.5201,13.6023 C55.8221,13.3026 56.1752,13.0657 56.5793,12.8915 C56.9834,12.7174 57.4155,12.6315 57.8753,12.6315 C58.3306,12.6315 58.7602,12.7174 59.1621,12.8893 C59.5639,13.0612 59.9169,13.2934 60.2212,13.5884 C60.5255,13.8834 60.767,14.2317 60.9459,14.6312 C61.1247,15.0307 61.2153,15.4581 61.2199,15.9134 C61.2199,16.1271 61.1525,16.2989 61.0155,16.4313 C60.8785,16.5637 60.6974,16.631 60.4743,16.631 L56.2239,16.631 L56.2239,16.631 Z M59.6661,15.3768 C59.615,15.1864 59.536,15.0168 59.4268,14.8635 C59.3176,14.7126 59.1853,14.5825 59.032,14.4757 C58.8787,14.3688 58.7068,14.2898 58.5164,14.2341 C58.3259,14.1783 58.1238,14.1505 57.9102,14.1505 C57.6965,14.1505 57.4967,14.1783 57.3085,14.2364 C57.1204,14.2945 56.9509,14.3781 56.7999,14.4873 C56.649,14.5941 56.5189,14.7242 56.4121,14.8751 C56.3051,15.0238 56.2262,15.1911 56.1752,15.3768 L59.6661,15.3768 L59.6661,15.3768 Z M64.0873,16.4661 C63.8876,16.3825 63.6808,16.2896 63.4672,16.1874 C63.2534,16.0853 63.0583,15.9621 62.8818,15.8158 C62.7053,15.6695 62.5612,15.4952 62.4475,15.2932 C62.3337,15.0912 62.2756,14.8496 62.2756,14.5662 C62.2756,14.2736 62.3337,14.0088 62.4498,13.7695 C62.5683,13.5303 62.7285,13.3259 62.9376,13.1564 C63.1442,12.9868 63.3905,12.8568 63.6738,12.7661 C63.9595,12.6756 64.2708,12.6315 64.6099,12.6315 C64.805,12.6315 65.0071,12.6477 65.2161,12.6779 C65.4251,12.708 65.6249,12.7569 65.813,12.8243 C66.0012,12.8915 66.1683,12.9798 66.3171,13.089 C66.4657,13.2005 66.5795,13.3306 66.6585,13.4861 C66.7282,13.6349 66.7537,13.7835 66.7328,13.9298 C66.7119,14.0762 66.6585,14.197 66.5749,14.2898 C66.5098,14.3641 66.4355,14.4222 66.3496,14.464 C66.2635,14.5058 66.1707,14.5267 66.0731,14.5267 C65.9988,14.5267 65.9176,14.5082 65.8293,14.471 C65.7317,14.4106 65.6435,14.3572 65.5622,14.3107 C65.4809,14.2642 65.3973,14.2248 65.3113,14.1923 C65.2254,14.1597 65.1348,14.1342 65.0396,14.118 C64.9444,14.1016 64.8352,14.0947 64.7144,14.0947 C64.4124,14.0947 64.1848,14.1342 64.0293,14.2155 C63.8736,14.2968 63.7946,14.4222 63.7946,14.5894 C63.7946,14.6777 63.8248,14.7497 63.8829,14.8078 C63.941,14.8659 64.0199,14.9193 64.1198,14.9634 C64.2197,15.0098 64.3405,15.054 64.4822,15.0957 C64.6238,15.1375 64.7771,15.184 64.9444,15.2351 C65.2184,15.3188 65.4809,15.4163 65.7294,15.5278 C65.9779,15.6393 66.1963,15.7763 66.3843,15.9343 C66.5725,16.0945 66.7212,16.2826 66.8327,16.4986 C66.9442,16.7146 66.9999,16.9724 66.9999,17.2745 C66.9999,17.5532 66.9395,17.8133 66.821,18.0572 C66.7026,18.301 66.5377,18.5124 66.3287,18.6936 C66.1173,18.8747 65.8687,19.0187 65.5808,19.1232 C65.2904,19.2278 64.9745,19.2789 64.6308,19.2789 C64.4171,19.2789 64.1919,19.258 63.9526,19.2184 C63.7134,19.179 63.481,19.1116 63.2558,19.0164 C63.0305,18.9212 62.8214,18.7958 62.631,18.6448 C62.4406,18.4939 62.2872,18.3057 62.1711,18.0827 C62.0874,17.9271 62.0456,17.7854 62.0456,17.6531 C62.0456,17.5207 62.0758,17.4022 62.1339,17.3023 C62.192,17.2024 62.2733,17.1257 62.3779,17.0701 C62.4823,17.0143 62.5961,16.9864 62.7216,16.9864 C62.833,16.9864 62.9492,17.0096 63.0699,17.0585 C63.1907,17.1072 63.3115,17.1862 63.4323,17.293 C63.4881,17.3627 63.5577,17.4277 63.6413,17.4905 C63.725,17.5532 63.8178,17.6089 63.9201,17.6577 C64.0222,17.7065 64.1337,17.7459 64.2522,17.7738 C64.3707,17.8017 64.4938,17.8156 64.6238,17.8156 C64.74,17.8156 64.8492,17.8017 64.9513,17.7761 C65.0535,17.7505 65.1441,17.7158 65.2231,17.6693 C65.3021,17.6228 65.3648,17.567 65.4111,17.502 C65.4576,17.4371 65.4809,17.3627 65.4809,17.2791 C65.4809,17.1815 65.4298,17.0932 65.3276,17.012 C65.2254,16.9306 65.1023,16.8563 64.956,16.7867 C64.8096,16.717 64.6563,16.6543 64.496,16.6009 C64.3358,16.5474 64.1988,16.5033 64.0873,16.4661 L64.0873,16.4661 Z" id="Shape" fill="#053E67" fill-rule="nonzero"></path>
            </g>
        </g>
    </g>
</svg>